# 3ds Max Wavefront OBJ Exporter v0.97b - (c)2007 guruware
# File Created: 16.03.2014 06:05:17

mtllib azadi square.mtl

#
# object Line003
#

v  -265.1324 -2.6745 -26.9766
v  -267.2504 -2.7042 -13.6701
v  -264.5691 3.9290 -13.6701
v  -262.4511 3.9587 -26.9766
v  -68.6246 0.7642 93.4373
v  -86.5193 0.6379 102.0514
v  -89.3432 400.6279 102.0514
v  -71.4486 400.7542 93.4373
v  -24.7235 401.0841 74.4863
v  1.7957 401.2714 76.7671
v  3.3351 183.2398 76.7671
v  -8.3731 171.5473 75.7531
v  -22.8332 133.3423 74.4863
v  -86.0804 0.6410 109.4990
v  -84.6530 0.6511 108.2257
v  -86.1555 0.6511 108.2257
v  -85.8994 53.5457 118.9086
v  -55.1902 0.8591 108.2677
v  -43.5039 53.5457 118.9086
v  -67.4720 400.7823 68.4564
v  -24.6012 128.6713 74.2322
v  -40.1422 68.7016 71.9805
v  -55.1902 0.8591 69.7905
v  -64.6480 0.7923 68.4564
v  -8.3731 171.5473 121.8528
v  -24.6012 128.6713 121.8528
v  -40.1422 68.7016 121.8528
v  -41.5886 62.1807 121.8528
v  -88.1763 400.6361 121.8528
v  -85.7868 62.1808 121.8528
v  -66.9836 389.8660 101.0278
v  -83.4370 389.7498 108.9481
v  -82.6765 389.7552 121.8528
v  -24.9990 390.1624 83.8162
v  1.8728 390.3521 121.8528
v  1.8728 390.3521 86.1273
v  -63.3819 389.8914 78.4021
v  -68.1377 230.3519 87.6001
v  -67.6743 1.0258 87.6001
v  -66.0196 230.3731 74.2936
v  -65.5562 1.0470 74.2936
v  3.3351 183.2398 121.8528
v  -265.1324 -2.6745 270.6823
v  -262.4511 3.9587 270.6823
v  -264.5691 3.9290 257.3758
v  -267.2504 -2.7042 257.3758
v  -68.6246 0.7642 150.2684
v  -71.4486 400.7542 150.2684
v  -89.3432 400.6279 141.6543
v  -86.5193 0.6379 141.6543
v  -24.7235 401.0841 169.2194
v  -22.8332 133.3423 169.2194
v  -8.3731 171.5473 167.9526
v  3.3351 183.2398 166.9386
v  1.7957 401.2714 166.9386
v  -86.0804 0.6410 134.2067
v  -86.1555 0.6511 135.4800
v  -84.6530 0.6511 135.4800
v  -85.8994 53.5457 124.7971
v  -43.5039 53.5457 124.7970
v  -55.1902 0.8591 135.4379
v  -67.4720 400.7823 175.2493
v  -64.6480 0.7923 175.2493
v  -55.1902 0.8591 173.9152
v  -40.1422 68.7016 171.7252
v  -24.6012 128.6713 169.4734
v  -66.9836 389.8660 142.6779
v  -63.3819 389.8914 165.3035
v  -24.9990 390.1624 159.8895
v  1.8728 390.3521 157.5783
v  -83.4370 389.7498 134.7576
v  -68.1377 230.3519 156.1056
v  -67.6743 1.0258 156.1056
v  -66.0196 230.3731 169.4121
v  -65.5562 1.0470 169.4121
v  -25.0761 401.0816 83.8162
v  1.7957 401.2714 86.1273
v  -63.4590 400.8107 78.4021
v  -67.0607 400.7852 101.0278
v  -83.5141 400.6691 108.9481
v  -82.7536 400.6744 121.8528
v  -83.5141 400.6691 134.7576
v  -67.0607 400.7852 142.6779
v  -63.4590 400.8107 165.3035
v  -25.0761 401.0816 159.8895
v  1.7957 401.2714 157.5783
v  -25.0340 395.1125 83.8162
v  1.8379 395.3022 86.1273
v  -63.4168 394.8415 78.4021
v  -67.0185 394.8160 101.0278
v  -83.4719 394.6999 108.9481
v  -82.7114 394.7053 121.8528
v  -83.4719 394.6999 134.7576
v  -67.0185 394.8160 142.6779
v  -63.4168 394.8415 165.3035
v  -25.0340 395.1125 159.8895
v  1.8379 395.3022 157.5783
v  274.4008 1.1346 -26.9766
v  271.6261 7.7293 -26.9766
v  273.7443 7.7296 -13.6701
v  276.5189 1.1349 -13.6701
v  77.8640 1.7984 93.4373
v  75.0400 401.7885 93.4373
v  92.9347 401.9148 102.0514
v  95.7587 1.9248 102.0514
v  28.3150 401.4586 74.4863
v  30.2053 133.7168 74.4863
v  15.2071 171.7138 75.7531
v  95.3198 1.9217 109.4990
v  95.3947 1.9328 108.2257
v  93.8924 1.9116 108.2257
v  94.3918 54.8185 118.9086
v  52.0006 54.2199 118.9086
v  64.4297 1.7036 108.2677
v  71.0634 401.7604 68.4564
v  73.8874 1.7704 68.4564
v  64.4296 1.7036 69.7905
v  48.4252 69.3269 71.9805
v  32.0390 129.0712 74.2322
v  32.0390 129.0712 121.8528
v  15.2071 171.7138 121.8528
v  49.9635 62.8271 121.8528
v  48.4252 69.3269 121.8528
v  91.7678 401.9066 121.8528
v  94.1573 63.4512 121.8528
v  70.7292 390.8383 101.0278
v  67.1275 390.8128 78.4021
v  28.7447 390.5419 83.8162
v  86.4221 390.9491 121.8528
v  87.1826 390.9544 108.9481
v  74.1355 231.3564 87.6001
v  76.9101 2.0466 87.6001
v  72.0173 231.3477 74.2936
v  74.7919 2.0379 74.2936
v  274.4008 1.1346 270.6823
v  276.5189 1.1349 257.3758
v  273.7443 7.7296 257.3758
v  271.6261 7.7293 270.6823
v  77.8640 1.7984 150.2684
v  95.7587 1.9248 141.6543
v  92.9347 401.9148 141.6543
v  75.0400 401.7885 150.2684
v  28.3150 401.4586 169.2194
v  15.2071 171.7138 167.9526
v  30.2053 133.7168 169.2194
v  95.3198 1.9217 134.2067
v  93.8924 1.9116 135.4800
v  95.3947 1.9328 135.4800
v  94.3918 54.8185 124.7971
v  64.4297 1.7036 135.4379
v  52.0006 54.2199 124.7970
v  71.0634 401.7604 175.2493
v  32.0390 129.0712 169.4734
v  48.4252 69.3269 171.7252
v  64.4296 1.7036 173.9152
v  73.8874 1.7704 175.2493
v  70.7292 390.8383 142.6779
v  87.1826 390.9544 134.7576
v  28.7447 390.5419 159.8895
v  67.1275 390.8128 165.3035
v  74.1355 231.3564 156.1056
v  76.9101 2.0466 156.1056
v  72.0173 231.3477 169.4121
v  74.7919 2.0379 169.4121
v  28.6676 401.4611 83.8162
v  67.0504 401.7321 78.4021
v  70.6521 401.7575 101.0278
v  87.1055 401.8737 108.9481
v  86.3450 401.8683 121.8528
v  87.1055 401.8737 134.7576
v  70.6521 401.7575 142.6779
v  67.0504 401.7321 165.3035
v  28.6676 401.4611 159.8895
v  28.7097 395.4919 83.8162
v  67.0926 395.7629 78.4021
v  70.6943 395.7883 101.0278
v  87.1477 395.9045 108.9481
v  86.3872 395.8991 121.8528
v  87.1477 395.9045 134.7576
v  70.6943 395.7883 142.6779
v  67.0926 395.7629 165.3035
v  28.7097 395.4919 159.8895
# 182 vertices

vn -0.8985 0.3632 -0.2464
vn -0.2676 -0.0019 -0.9635
vn 0.0654 0.0005 -0.9979
vn 0.0000 -0.0000 -1.0000
vn -0.0000 0.0000 -1.0000
vn 0.0496 0.0003 -0.9988
vn 0.0774 0.0005 -0.9970
vn -0.0000 0.9999 0.0137
vn -0.0000 -0.1543 0.9880
vn 0.0000 -0.1158 0.9933
vn -0.0000 -0.1158 0.9933
vn -0.0000 -0.1598 0.9871
vn 0.0811 0.0006 -0.9967
vn 0.9353 -0.3540 0.0000
vn 0.8418 -0.5399 0.0000
vn 0.8398 -0.5429 0.0000
vn 0.9530 -0.3029 0.0000
vn 0.9533 -0.3020 0.0000
vn 0.9763 -0.2165 0.0000
vn 0.9763 -0.2165 -0.0000
vn -1.0000 -0.0071 -0.0000
vn -0.9948 -0.0070 0.1016
vn -0.9948 -0.0068 0.1016
vn -0.9948 -0.0069 0.1016
vn 0.0071 -1.0000 -0.0000
vn -0.0071 1.0000 -0.0000
vn -0.8942 -0.0047 -0.4476
vn -0.9639 -0.0135 -0.2659
vn -0.9987 -0.0052 -0.0511
vn -0.9611 0.0783 -0.2649
vn -0.2845 0.0027 0.9587
vn -0.7154 0.6710 -0.1951
vn 0.2845 -0.0027 -0.9587
vn 0.0182 -0.9998 0.0017
vn -0.0000 -1.0000 -0.0000
vn 0.9680 -0.2509 -0.0000
vn 0.9680 -0.2509 0.0000
vn 0.0071 -1.0000 0.0000
vn -0.8985 0.3632 0.2464
vn -0.2676 -0.0019 0.9635
vn 0.0654 0.0005 0.9979
vn 0.0774 0.0005 0.9970
vn 0.0496 0.0003 0.9988
vn 0.0000 0.0000 1.0000
vn -0.0000 -0.0000 1.0000
vn -0.0000 0.9999 -0.0137
vn -0.0000 -0.1543 -0.9880
vn -0.0000 -0.1598 -0.9871
vn -0.0000 -0.1158 -0.9933
vn 0.0000 -0.1158 -0.9933
vn 0.0811 0.0006 0.9967
vn 0.9353 -0.3540 -0.0000
vn 0.9533 -0.3020 -0.0000
vn 0.8418 -0.5399 -0.0000
vn -0.9948 -0.0070 -0.1016
vn -0.9948 -0.0069 -0.1016
vn -0.9948 -0.0068 -0.1016
vn -0.8942 -0.0047 0.4476
vn -0.9639 -0.0135 0.2659
vn -0.9987 -0.0052 0.0511
vn -0.9611 0.0783 0.2649
vn -0.2845 0.0027 -0.9587
vn -0.7154 0.6710 0.1951
vn 0.2845 -0.0027 0.9587
vn 0.0182 -0.9998 -0.0017
vn -0.0496 -0.0003 0.9988
vn -0.0811 -0.0006 0.9967
vn 0.9640 0.0068 0.2659
vn 0.2676 0.0019 0.9635
vn 0.9948 0.0070 -0.1016
vn 0.9948 0.0070 0.1016
vn 0.2676 0.0019 -0.9635
vn 0.9640 0.0068 -0.2659
vn -0.0811 -0.0006 -0.9967
vn -0.0496 -0.0003 -0.9988
vn 0.8933 0.3759 -0.2464
vn -0.0654 -0.0005 -0.9979
vn -0.0774 -0.0005 -0.9970
vn -0.0141 0.9998 0.0137
vn 0.0022 -0.1543 0.9880
vn 0.0023 -0.1598 0.9871
vn 0.0016 -0.1158 0.9933
vn -0.9302 -0.3672 0.0000
vn -0.9489 -0.3155 0.0000
vn -0.9487 -0.3163 -0.0000
vn -0.8320 -0.5548 -0.0000
vn -0.8340 -0.5517 0.0000
vn -0.9731 -0.2303 0.0000
vn -0.9731 -0.2303 -0.0000
vn 1.0000 0.0071 0.0000
vn 0.9948 0.0072 0.1016
vn 0.8942 0.0080 -0.4476
vn 0.9640 0.0001 -0.2659
vn 0.9987 0.0089 -0.0511
vn 0.9599 0.0919 -0.2649
vn 0.2844 0.0067 0.9587
vn 0.7058 0.6810 -0.1951
vn -0.2844 -0.0067 -0.9587
vn -0.0040 -1.0000 0.0017
vn 0.0141 -0.9999 0.0000
vn 0.0141 -0.9999 -0.0000
vn -0.9644 -0.2645 0.0000
vn 0.8933 0.3759 0.2464
vn -0.0654 -0.0005 0.9979
vn -0.0774 -0.0005 0.9970
vn -0.0141 0.9998 -0.0137
vn 0.0022 -0.1543 -0.9880
vn 0.0016 -0.1158 -0.9933
vn 0.0023 -0.1598 -0.9871
vn -0.9302 -0.3672 -0.0000
vn -0.8340 -0.5517 -0.0000
vn -0.9489 -0.3155 -0.0000
vn 0.9948 0.0072 -0.1016
vn 0.8942 0.0080 0.4476
vn 0.9640 0.0001 0.2659
vn 0.9987 0.0089 0.0511
vn 0.9599 0.0919 0.2649
vn 0.2844 0.0067 -0.9587
vn 0.7058 0.6810 0.1951
vn -0.2844 -0.0067 0.9587
vn -0.0040 -1.0000 -0.0017
vn -0.9644 -0.2645 -0.0000
vn -0.9640 -0.0068 0.2659
vn -0.9640 -0.0068 -0.2659
# 124 vertex normals

vt 0.0751 0.0287 0.0000
vt 0.0336 0.0168 0.0000
vt 0.1422 0.0415 0.0000
vt 0.0788 0.0415 0.0000
vt 0.4068 0.0327 0.0000
vt 0.3827 0.0327 0.0000
vt 0.3827 0.8082 0.0000
vt 0.4068 0.8082 0.0000
vt 0.4638 0.8568 0.0000
vt 0.5156 0.8690 0.0000
vt 0.5156 0.4463 0.0000
vt 0.4782 0.4203 0.0000
vt 0.4013 0.3470 0.0000
vt 0.7814 0.0552 0.0000
vt 0.6639 -0.8734 0.0000
vt 0.7815 0.0553 0.0000
vt 0.7425 0.1515 0.0000
vt 0.6125 -0.8734 0.0000
vt 0.5915 -0.7601 0.0000
vt 0.4042 0.8502 0.0000
vt 0.3985 0.3100 0.0000
vt 0.3572 0.2043 0.0000
vt 0.3148 0.0833 0.0000
vt 0.3107 0.0886 0.0000
vt 0.5544 -0.5885 0.0000
vt 0.5287 -0.5064 0.0000
vt 0.5576 -0.5985 0.0000
vt 0.5854 -0.7275 0.0000
vt 0.5880 -0.7415 0.0000
vt 0.4925 0.7886 0.0000
vt 0.4942 0.7903 0.0000
vt 0.7821 0.0558 0.0000
vt 0.7360 0.1672 0.0000
vt 0.6360 -0.8734 0.0000
vt 0.6290 -0.8734 0.0000
vt 0.6360 -0.0117 0.0000
vt 0.5544 -0.0117 0.0000
vt 0.5081 -0.0117 0.0000
vt 0.6290 -0.0117 0.0000
vt 0.4097 0.4778 0.0000
vt 0.4081 0.0332 0.0000
vt 0.3601 0.4818 0.0000
vt 0.3585 0.0372 0.0000
vt 0.0442 0.0148 0.0000
vt 0.0394 0.0005 0.0000
vt 0.3878 0.0055 0.0000
vt 0.3898 0.4995 0.0000
vt 0.9761 0.0186 0.0000
vt 0.6277 0.0236 0.0000
vt 0.5081 -0.4814 0.0000
# 50 texture coords

g Line003
usemtl 01___Default
s 4
f -182/-50/-124 -181/-49/-124 -180/-48/-124 -179/-47/-124 
usemtl 02___Default
s 2
f -178/-46/-123 -177/-45/-123 -176/-44/-123 -175/-43/-123 
usemtl 01___Default
s 1
f -174/-42/-122 -173/-41/-121 -172/-40/-120 -171/-39/-119 
f -174/-42/-122 -171/-39/-119 -170/-38/-118 
f -169/-37/-117 -168/-36/-117 -167/-35/-117 
usemtl 02___Default
s 32
f -166/-34/-116 -167/-35/-115 -168/-36/-115 -165/-33/-114 
f -166/-34/-116 -165/-33/-114 -164/-32/-113 
usemtl 01___Default
s 3
f -163/-31/-112 -174/-42/-122 -170/-38/-118 -162/-30/-112 
f -163/-31/-112 -162/-30/-112 -161/-29/-112 -160/-28/-112 
f -163/-31/-112 -160/-28/-112 -159/-27/-112 
usemtl 02___Default
s 8
f -170/-26/-111 -171/-25/-110 -158/-25/-109 -157/-24/-108 
f -170/-26/-111 -157/-24/-108 -162/-24/-107 
s 4
f -161/-23/-106 -156/-23/-105 -155/-22/-106 -164/-32/-106 
f -161/-23/-106 -164/-32/-106 -165/-33/-106 -160/-33/-106 
f -154/-21/-104 -176/-20/-103 -177/-19/-103 -166/-34/-103 
f -177/-19/-103 -169/-37/-102 -167/-35/-101 -166/-34/-103 
f -154/-21/-104 -166/-34/-103 -153/-18/-104 
s 16
f -168/-36/-100 -169/-37/-100 -177/-19/-100 -178/-17/-100 
f -165/-33/-100 -168/-36/-100 -178/-17/-100 -159/-16/-100 
f -165/-33/-100 -159/-16/-100 -160/-33/-100 
f -152/-15/-99 -151/-20/-99 -150/-21/-99 -149/-14/-99 
f -150/-21/-99 -148/-13/-99 -147/-13/-99 -149/-14/-99 
f -152/-15/-99 -149/-14/-99 -146/-12/-99 
s off
f -145/-11/-98 -144/-10/-98 -178/-46/-98 -175/-43/-98 
f -143/-9/-97 -145/-11/-97 -175/-43/-97 -163/-31/-97 
f -142/-8/-96 -143/-9/-96 -163/-31/-96 -159/-27/-96 
usemtl 01___Default
f -144/-10/-95 -142/-8/-95 -159/-27/-95 -178/-46/-95 
f -180/-7/-94 -181/-6/-94 -144/-5/-94 -145/-4/-94 
f -179/-47/-93 -180/-48/-93 -145/-11/-93 -143/-9/-93 
f -182/-50/-92 -179/-47/-92 -143/-9/-92 -142/-8/-92 
usemtl 02___Default
f -181/-6/-91 -182/-3/-91 -142/-2/-91 -144/-5/-91 
s 32
f -164/-32/-113 -155/-22/-90 -153/-18/-90 -166/-34/-116 
s 8
f -162/-24/-107 -157/-24/-108 -156/-23/-89 -161/-23/-88 
f -172/-1/-87 -141/-1/-100 -158/-25/-109 -171/-25/-110 
usemtl 01___Default
s 4
f -140/-50/-86 -139/-47/-86 -138/-48/-86 -137/-49/-86 
usemtl 02___Default
s 2
f -136/-46/-85 -135/-43/-85 -134/-44/-85 -133/-45/-85 
usemtl 01___Default
s 1
f -132/-42/-84 -131/-38/-83 -130/-39/-82 -129/-40/-81 
f -132/-42/-84 -129/-40/-81 -128/-41/-80 
f -127/-37/-79 -126/-35/-79 -125/-36/-79 
usemtl 02___Default
s 32
f -124/-34/-78 -123/-32/-77 -122/-33/-76 -125/-36/-75 
f -124/-34/-78 -125/-36/-75 -126/-35/-75 
usemtl 01___Default
s 3
f -121/-31/-74 -120/-27/-74 -119/-28/-74 -118/-29/-74 
f -121/-31/-74 -118/-29/-74 -117/-30/-74 -131/-38/-83 
f -121/-31/-74 -131/-38/-83 -132/-42/-84 
usemtl 02___Default
s 8
f -131/-26/-73 -117/-24/-72 -157/-24/-108 -158/-25/-109 
f -131/-26/-73 -158/-25/-109 -130/-25/-71 
s 4
f -118/-23/-105 -119/-33/-105 -122/-33/-105 -123/-32/-105 
f -118/-23/-105 -123/-32/-105 -155/-22/-106 -156/-23/-105 
f -154/-21/-104 -153/-18/-104 -124/-34/-70 -133/-19/-70 
f -126/-35/-69 -127/-37/-68 -133/-19/-70 -124/-34/-70 
f -154/-21/-104 -133/-19/-70 -134/-20/-70 
s 16
f -122/-33/-100 -119/-33/-100 -120/-16/-100 -136/-17/-100 
f -133/-19/-100 -127/-37/-100 -125/-36/-100 -136/-17/-100 
f -122/-33/-100 -136/-17/-100 -125/-36/-100 
f -116/-15/-99 -115/-12/-99 -114/-14/-99 -150/-21/-99 
f -113/-13/-99 -148/-13/-99 -150/-21/-99 -114/-14/-99 
f -116/-15/-99 -150/-21/-99 -112/-20/-99 
s off
f -111/-11/-67 -135/-43/-67 -136/-46/-67 -110/-10/-67 
f -109/-9/-66 -121/-31/-66 -135/-43/-66 -111/-11/-66 
usemtl 01___Default
f -108/-8/-65 -120/-27/-65 -121/-31/-65 -109/-9/-65 
f -110/-10/-64 -136/-46/-64 -120/-27/-64 -108/-8/-64 
f -138/-7/-63 -111/-4/-63 -110/-5/-63 -137/-6/-63 
f -139/-47/-62 -109/-9/-62 -111/-11/-62 -138/-48/-62 
f -140/-50/-61 -108/-8/-61 -109/-9/-61 -139/-47/-61 
usemtl 02___Default
f -137/-6/-60 -110/-5/-60 -108/-2/-60 -140/-3/-60 
s 32
f -123/-32/-77 -124/-34/-78 -153/-18/-90 -155/-22/-90 
s 8
f -117/-24/-72 -118/-23/-89 -156/-23/-89 -157/-24/-108 
f -129/-1/-100 -130/-25/-71 -158/-25/-109 -141/-1/-100 
s off
f -173/-41/-99 -174/-42/-99 -107/-14/-99 -106/-13/-99 
f -174/-42/-99 -163/-31/-99 -105/-12/-99 -107/-14/-99 
f -163/-31/-99 -175/-43/-99 -104/-15/-99 -105/-12/-99 
f -175/-43/-99 -176/-44/-99 -103/-20/-99 -104/-15/-99 
f -176/-20/-99 -154/-21/-99 -102/-21/-99 -103/-20/-99 
f -154/-21/-99 -134/-20/-99 -101/-20/-99 -102/-21/-99 
f -134/-44/-99 -135/-43/-99 -100/-15/-99 -101/-20/-99 
f -135/-43/-99 -121/-31/-99 -99/-12/-99 -100/-15/-99 
f -121/-31/-99 -132/-42/-99 -98/-14/-99 -99/-12/-99 
f -132/-42/-99 -128/-41/-99 -97/-13/-99 -98/-14/-99 
f -106/-13/-59 -107/-14/-59 -96/-14/-59 -95/-13/-59 
f -107/-14/-58 -105/-12/-58 -94/-12/-58 -96/-14/-58 
f -105/-12/-57 -104/-15/-57 -93/-15/-57 -94/-12/-57 
f -104/-15/-56 -103/-20/-56 -92/-20/-56 -93/-15/-56 
f -103/-20/-55 -102/-21/-55 -91/-21/-55 -92/-20/-55 
f -102/-21/-54 -101/-20/-54 -90/-20/-54 -91/-21/-54 
f -101/-20/-53 -100/-15/-53 -89/-15/-53 -90/-20/-53 
f -100/-15/-52 -99/-12/-52 -88/-12/-52 -89/-15/-52 
f -99/-12/-51 -98/-14/-51 -87/-14/-51 -88/-12/-51 
f -98/-14/-50 -97/-13/-50 -86/-13/-50 -87/-14/-50 
f -95/-13/-59 -96/-14/-59 -149/-14/-59 -147/-13/-59 
f -96/-14/-58 -94/-12/-58 -146/-12/-58 -149/-14/-58 
f -94/-12/-57 -93/-15/-57 -152/-15/-57 -146/-12/-57 
f -93/-15/-56 -92/-20/-56 -151/-20/-56 -152/-15/-56 
f -92/-20/-55 -91/-21/-55 -150/-21/-55 -151/-20/-55 
f -91/-21/-54 -90/-20/-54 -112/-20/-54 -150/-21/-54 
f -90/-20/-53 -89/-15/-53 -116/-15/-53 -112/-20/-53 
f -89/-15/-52 -88/-12/-52 -115/-12/-52 -116/-15/-52 
f -88/-12/-51 -87/-14/-51 -114/-14/-51 -115/-12/-51 
f -87/-14/-50 -86/-13/-50 -113/-13/-50 -114/-14/-50 
usemtl 01___Default
s 4
f -85/-50/-49 -84/-47/-49 -83/-48/-49 -82/-49/-49 
usemtl 02___Default
s 2
f -81/-46/-53 -80/-43/-53 -79/-44/-53 -78/-45/-53 
usemtl 01___Default
s 1
f -77/-42/-48 -76/-38/-47 -75/-39/-50 -172/-40/-120 
f -77/-42/-48 -172/-40/-120 -173/-41/-121 
f -74/-37/-46 -73/-35/-46 -72/-36/-46 
usemtl 02___Default
s 32
f -71/-34/-45 -70/-32/-44 -69/-33/-43 -72/-36/-43 
f -71/-34/-45 -72/-36/-43 -73/-35/-43 
usemtl 01___Default
s 3
f -68/-31/-51 -67/-27/-51 -66/-28/-51 -65/-29/-51 
f -68/-31/-51 -65/-29/-51 -64/-30/-51 -76/-38/-47 
f -68/-31/-51 -76/-38/-47 -77/-42/-48 
usemtl 02___Default
s 8
f -76/-26/-42 -64/-24/-41 -63/-24/-40 -62/-25/-39 
f -76/-26/-42 -62/-25/-39 -75/-25/-38 
s 4
f -65/-23/-37 -66/-33/-37 -69/-33/-37 -70/-32/-37 
f -65/-23/-37 -70/-32/-37 -61/-22/-37 -60/-23/-36 
f -59/-21/-35 -58/-18/-35 -71/-34/-54 -78/-19/-54 
f -73/-35/-34 -74/-37/-34 -78/-19/-54 -71/-34/-54 
f -59/-21/-35 -78/-19/-54 -79/-20/-54 
s 16
f -69/-33/-100 -66/-33/-100 -67/-16/-100 -81/-17/-100 
f -78/-19/-100 -74/-37/-100 -72/-36/-100 -81/-17/-100 
f -69/-33/-100 -81/-17/-100 -72/-36/-100 
f -57/-15/-99 -56/-12/-99 -55/-14/-99 -54/-21/-99 
f -147/-13/-99 -148/-13/-99 -54/-21/-99 -55/-14/-99 
f -57/-15/-99 -54/-21/-99 -53/-20/-99 
s off
f -52/-11/-33 -80/-43/-33 -81/-46/-33 -51/-10/-33 
f -50/-9/-32 -68/-31/-32 -80/-43/-32 -52/-11/-32 
f -49/-8/-31 -67/-27/-31 -68/-31/-31 -50/-9/-31 
usemtl 01___Default
f -51/-10/-30 -81/-46/-30 -67/-27/-30 -49/-8/-30 
f -83/-7/-29 -52/-4/-29 -51/-5/-29 -82/-6/-29 
f -84/-47/-28 -50/-9/-28 -52/-11/-28 -83/-48/-28 
f -85/-50/-27 -49/-8/-27 -50/-9/-27 -84/-47/-27 
usemtl 02___Default
f -82/-6/-26 -51/-5/-26 -49/-2/-26 -85/-3/-26 
s 32
f -70/-32/-44 -71/-34/-45 -58/-18/-25 -61/-22/-24 
s 8
f -64/-24/-41 -65/-23/-23 -60/-23/-23 -63/-24/-40 
f -172/-1/-87 -75/-25/-38 -62/-25/-39 -141/-1/-100 
usemtl 01___Default
s 4
f -48/-50/-22 -47/-49/-22 -46/-48/-22 -45/-47/-22 
usemtl 02___Default
s 2
f -44/-46/-56 -43/-45/-56 -42/-44/-56 -41/-43/-56 
usemtl 01___Default
s 1
f -40/-42/-21 -128/-41/-80 -129/-40/-81 -39/-39/-59 
f -40/-42/-21 -39/-39/-59 -38/-38/-20 
f -37/-37/-19 -36/-36/-19 -35/-35/-19 
usemtl 02___Default
s 32
f -34/-34/-18 -35/-35/-17 -36/-36/-17 -33/-33/-17 
f -34/-34/-18 -33/-33/-17 -32/-32/-16 
usemtl 01___Default
s 3
f -31/-31/-58 -40/-42/-21 -38/-38/-20 -30/-30/-58 
f -31/-31/-58 -30/-30/-58 -29/-29/-58 -28/-28/-58 
f -31/-31/-58 -28/-28/-58 -27/-27/-58 
usemtl 02___Default
s 8
f -38/-26/-15 -39/-25/-14 -62/-25/-39 -63/-24/-40 
f -38/-26/-15 -63/-24/-40 -30/-24/-13 
s 4
f -29/-23/-36 -60/-23/-36 -61/-22/-37 -32/-32/-36 
f -29/-23/-36 -32/-32/-36 -33/-33/-36 -28/-33/-36 
f -59/-21/-35 -42/-20/-55 -43/-19/-55 -34/-34/-55 
f -43/-19/-55 -37/-37/-12 -35/-35/-12 -34/-34/-55 
f -59/-21/-35 -34/-34/-55 -58/-18/-35 
s 16
f -36/-36/-100 -37/-37/-100 -43/-19/-100 -44/-17/-100 
f -33/-33/-100 -36/-36/-100 -44/-17/-100 -27/-16/-100 
f -33/-33/-100 -27/-16/-100 -28/-33/-100 
f -26/-15/-99 -25/-20/-99 -54/-21/-99 -24/-14/-99 
f -54/-21/-99 -148/-13/-99 -113/-13/-99 -24/-14/-99 
f -26/-15/-99 -24/-14/-99 -23/-12/-99 
s off
f -22/-11/-11 -21/-10/-11 -44/-46/-11 -41/-43/-11 
f -20/-9/-10 -22/-11/-10 -41/-43/-10 -31/-31/-10 
usemtl 01___Default
f -19/-8/-9 -20/-9/-9 -31/-31/-9 -27/-27/-9 
f -21/-10/-8 -19/-8/-8 -27/-27/-8 -44/-46/-8 
f -46/-7/-7 -47/-6/-7 -21/-5/-7 -22/-4/-7 
f -45/-47/-6 -46/-48/-6 -22/-11/-6 -20/-9/-6 
f -48/-50/-5 -45/-47/-5 -20/-9/-5 -19/-8/-5 
usemtl 02___Default
f -47/-6/-4 -48/-3/-4 -19/-2/-4 -21/-5/-4 
s 32
f -32/-32/-16 -61/-22/-24 -58/-18/-25 -34/-34/-18 
s 8
f -30/-24/-13 -63/-24/-40 -60/-23/-23 -29/-23/-3 
f -129/-1/-100 -141/-1/-100 -62/-25/-39 -39/-25/-14 
s off
f -173/-41/-99 -106/-13/-99 -18/-14/-99 -77/-42/-99 
f -77/-42/-99 -18/-14/-99 -17/-12/-99 -68/-31/-99 
f -68/-31/-99 -17/-12/-99 -16/-15/-99 -80/-43/-99 
f -80/-43/-99 -16/-15/-99 -15/-20/-99 -79/-44/-99 
f -79/-20/-99 -15/-20/-99 -14/-21/-99 -59/-21/-99 
f -59/-21/-99 -14/-21/-99 -13/-20/-99 -42/-20/-99 
f -42/-44/-99 -13/-20/-99 -12/-15/-99 -41/-43/-99 
f -41/-43/-99 -12/-15/-99 -11/-12/-99 -31/-31/-99 
f -31/-31/-99 -11/-12/-99 -10/-14/-99 -40/-42/-99 
f -40/-42/-99 -10/-14/-99 -97/-13/-99 -128/-41/-99 
f -106/-13/-82 -95/-13/-82 -9/-14/-82 -18/-14/-82 
f -18/-14/-74 -9/-14/-74 -8/-12/-74 -17/-12/-74 
f -17/-12/-2 -8/-12/-2 -7/-15/-2 -16/-15/-2 
f -16/-15/-85 -7/-15/-85 -6/-20/-85 -15/-20/-85 
f -15/-20/-70 -6/-20/-70 -5/-21/-70 -14/-21/-70 
f -14/-21/-103 -5/-21/-103 -4/-20/-103 -13/-20/-103 
f -13/-20/-123 -4/-20/-123 -3/-15/-123 -12/-15/-123 
f -12/-15/-1 -3/-15/-1 -2/-12/-1 -11/-12/-1 
f -11/-12/-112 -2/-12/-112 -1/-14/-112 -10/-14/-112 
f -10/-14/-119 -1/-14/-119 -86/-13/-119 -97/-13/-119 
f -95/-13/-82 -147/-13/-82 -55/-14/-82 -9/-14/-82 
f -9/-14/-74 -55/-14/-74 -56/-12/-74 -8/-12/-74 
f -8/-12/-2 -56/-12/-2 -57/-15/-2 -7/-15/-2 
f -7/-15/-85 -57/-15/-85 -53/-20/-85 -6/-20/-85 
f -6/-20/-70 -53/-20/-70 -54/-21/-70 -5/-21/-70 
f -5/-21/-103 -54/-21/-103 -25/-20/-103 -4/-20/-103 
f -4/-20/-123 -25/-20/-123 -26/-15/-123 -3/-15/-123 
f -3/-15/-1 -26/-15/-1 -23/-12/-1 -2/-12/-1 
f -2/-12/-112 -23/-12/-112 -24/-14/-112 -1/-14/-112 
f -1/-14/-119 -24/-14/-119 -113/-13/-119 -86/-13/-119 
# 164 polygons - 32 triangles

